<svg width="1226" height="117" viewBox="0 0 1226 117" fill="none" xmlns="http://www.w3.org/2000/svg">
<path d="M29.088 93.768C24.224 93.768 19.84 92.68 15.936 90.504C12.032 88.264 8.928 85.16 6.624 81.192C4.384 77.224 3.264 72.552 3.264 67.176C3.264 61.736 4.384 57.032 6.624 53.064C8.928 49.096 12.032 46.024 15.936 43.848C19.84 41.672 24.224 40.584 29.088 40.584C33.44 40.584 37.248 41.544 40.512 43.464C43.776 45.384 46.304 48.296 48.096 52.2C49.888 56.104 50.784 61.096 50.784 67.176C50.784 73.192 49.92 78.184 48.192 82.152C46.464 86.056 43.968 88.968 40.704 90.888C37.504 92.808 33.632 93.768 29.088 93.768ZM31.68 81.48C34.112 81.48 36.32 80.904 38.304 79.752C40.288 78.6 41.856 76.968 43.008 74.856C44.224 72.68 44.832 70.12 44.832 67.176C44.832 64.168 44.224 61.608 43.008 59.496C41.856 57.384 40.288 55.752 38.304 54.6C36.32 53.448 34.112 52.872 31.68 52.872C29.184 52.872 26.944 53.448 24.96 54.6C22.976 55.752 21.376 57.384 20.16 59.496C19.008 61.608 18.432 64.168 18.432 67.176C18.432 70.12 19.008 72.68 20.16 74.856C21.376 76.968 22.976 78.6 24.96 79.752C26.944 80.904 29.184 81.48 31.68 81.48ZM45.216 93V82.44L45.504 67.08L44.544 51.816V21.768H59.52V93H45.216ZM105.061 93V82.92L104.101 80.712V62.664C104.101 59.464 103.109 56.968 101.125 55.176C99.2048 53.384 96.2288 52.488 92.1968 52.488C89.4448 52.488 86.7248 52.936 84.0368 53.832C81.4128 54.664 79.1728 55.816 77.3168 57.288L71.9408 46.824C74.7568 44.84 78.1488 43.304 82.1168 42.216C86.0848 41.128 90.1168 40.584 94.2128 40.584C102.085 40.584 108.197 42.44 112.549 46.152C116.901 49.864 119.077 55.656 119.077 63.528V93H105.061ZM89.3168 93.768C85.2848 93.768 81.8288 93.096 78.9488 91.752C76.0688 90.344 73.8608 88.456 72.3248 86.088C70.7888 83.72 70.0208 81.064 70.0208 78.12C70.0208 75.048 70.7568 72.36 72.2288 70.056C73.7648 67.752 76.1648 65.96 79.4288 64.68C82.6928 63.336 86.9488 62.664 92.1968 62.664H105.925V71.4H93.8288C90.3088 71.4 87.8768 71.976 86.5328 73.128C85.2528 74.28 84.6128 75.72 84.6128 77.448C84.6128 79.368 85.3488 80.904 86.8208 82.056C88.3568 83.144 90.4368 83.688 93.0608 83.688C95.5568 83.688 97.7968 83.112 99.7808 81.96C101.765 80.744 103.205 78.984 104.101 76.68L106.405 83.592C105.317 86.92 103.333 89.448 100.453 91.176C97.5728 92.904 93.8608 93.768 89.3168 93.768ZM132.631 93V41.352H147.607V93H132.631ZM140.119 34.152C137.367 34.152 135.127 33.352 133.399 31.752C131.671 30.152 130.807 28.168 130.807 25.8C130.807 23.432 131.671 21.448 133.399 19.848C135.127 18.248 137.367 17.448 140.119 17.448C142.871 17.448 145.111 18.216 146.839 19.752C148.567 21.224 149.431 23.144 149.431 25.512C149.431 28.008 148.567 30.088 146.839 31.752C145.175 33.352 142.935 34.152 140.119 34.152ZM178.882 93.768C174.466 93.768 170.21 93.256 166.114 92.232C162.082 91.144 158.882 89.8 156.514 88.2L161.506 77.448C163.874 78.92 166.658 80.136 169.858 81.096C173.122 81.992 176.322 82.44 179.458 82.44C182.914 82.44 185.346 82.024 186.754 81.192C188.226 80.36 188.962 79.208 188.962 77.736C188.962 76.52 188.386 75.624 187.234 75.048C186.146 74.408 184.674 73.928 182.818 73.608C180.962 73.288 178.914 72.968 176.674 72.648C174.498 72.328 172.29 71.912 170.05 71.4C167.81 70.824 165.762 69.992 163.906 68.904C162.05 67.816 160.546 66.344 159.394 64.488C158.306 62.632 157.762 60.232 157.762 57.288C157.762 54.024 158.69 51.144 160.546 48.648C162.466 46.152 165.218 44.2 168.802 42.792C172.386 41.32 176.674 40.584 181.666 40.584C185.186 40.584 188.77 40.968 192.418 41.736C196.066 42.504 199.106 43.624 201.538 45.096L196.546 55.752C194.05 54.28 191.522 53.288 188.962 52.776C186.466 52.2 184.034 51.912 181.666 51.912C178.338 51.912 175.906 52.36 174.37 53.256C172.834 54.152 172.066 55.304 172.066 56.712C172.066 57.992 172.61 58.952 173.698 59.592C174.85 60.232 176.354 60.744 178.21 61.128C180.066 61.512 182.082 61.864 184.258 62.184C186.498 62.44 188.738 62.856 190.978 63.432C193.218 64.008 195.234 64.84 197.026 65.928C198.882 66.952 200.386 68.392 201.538 70.248C202.69 72.04 203.266 74.408 203.266 77.352C203.266 80.552 202.306 83.4 200.386 85.896C198.466 88.328 195.682 90.248 192.034 91.656C188.45 93.064 184.066 93.768 178.882 93.768ZM218.096 112.392C215.408 112.392 212.752 111.976 210.128 111.144C207.504 110.312 205.36 109.16 203.696 107.688L209.168 97.032C210.32 98.056 211.632 98.856 213.104 99.432C214.64 100.008 216.144 100.296 217.616 100.296C219.728 100.296 221.392 99.784 222.608 98.76C223.888 97.8 225.04 96.168 226.064 93.864L228.752 87.528L229.904 85.896L248.432 41.352H262.832L239.504 96.168C237.84 100.328 235.92 103.592 233.744 105.96C231.632 108.328 229.264 109.992 226.64 110.952C224.08 111.912 221.232 112.392 218.096 112.392ZM226.928 95.016L203.888 41.352H219.344L237.2 84.552L226.928 95.016ZM719.565 93.768C715.021 93.768 711.117 92.808 707.853 90.888C704.589 88.968 702.093 86.056 700.365 82.152C698.637 78.184 697.773 73.192 697.773 67.176C697.773 61.096 698.669 56.104 700.461 52.2C702.317 48.296 704.877 45.384 708.141 43.464C711.405 41.544 715.213 40.584 719.565 40.584C724.429 40.584 728.781 41.672 732.621 43.848C736.525 46.024 739.597 49.096 741.837 53.064C744.141 57.032 745.293 61.736 745.293 67.176C745.293 72.552 744.141 77.224 741.837 81.192C739.597 85.16 736.525 88.264 732.621 90.504C728.781 92.68 724.429 93.768 719.565 93.768ZM689.037 93V21.768H704.013V51.816L703.053 67.08L703.341 82.44V93H689.037ZM716.973 81.48C719.469 81.48 721.677 80.904 723.597 79.752C725.581 78.6 727.149 76.968 728.301 74.856C729.517 72.68 730.125 70.12 730.125 67.176C730.125 64.168 729.517 61.608 728.301 59.496C727.149 57.384 725.581 55.752 723.597 54.6C721.677 53.448 719.469 52.872 716.973 52.872C714.477 52.872 712.237 53.448 710.253 54.6C708.269 55.752 706.701 57.384 705.549 59.496C704.397 61.608 703.821 64.168 703.821 67.176C703.821 70.12 704.397 72.68 705.549 74.856C706.701 76.968 708.269 78.6 710.253 79.752C712.237 80.904 714.477 81.48 716.973 81.48ZM779.894 93.768C774.39 93.768 769.494 92.616 765.206 90.312C760.982 88.008 757.622 84.872 755.126 80.904C752.694 76.872 751.478 72.296 751.478 67.176C751.478 61.992 752.694 57.416 755.126 53.448C757.622 49.416 760.982 46.28 765.206 44.04C769.494 41.736 774.39 40.584 779.894 40.584C785.334 40.584 790.198 41.736 794.486 44.04C798.774 46.28 802.134 49.384 804.566 53.352C806.998 57.32 808.214 61.928 808.214 67.176C808.214 72.296 806.998 76.872 804.566 80.904C802.134 84.872 798.774 88.008 794.486 90.312C790.198 92.616 785.334 93.768 779.894 93.768ZM779.894 81.48C782.39 81.48 784.63 80.904 786.614 79.752C788.598 78.6 790.166 76.968 791.318 74.856C792.47 72.68 793.046 70.12 793.046 67.176C793.046 64.168 792.47 61.608 791.318 59.496C790.166 57.384 788.598 55.752 786.614 54.6C784.63 53.448 782.39 52.872 779.894 52.872C777.398 52.872 775.158 53.448 773.174 54.6C771.19 55.752 769.59 57.384 768.374 59.496C767.222 61.608 766.646 64.168 766.646 67.176C766.646 70.12 767.222 72.68 768.374 74.856C769.59 76.968 771.19 78.6 773.174 79.752C775.158 80.904 777.398 81.48 779.894 81.48ZM818.225 93V41.352H833.201V93H818.225ZM825.713 34.152C822.961 34.152 820.721 33.352 818.993 31.752C817.265 30.152 816.401 28.168 816.401 25.8C816.401 23.432 817.265 21.448 818.993 19.848C820.721 18.248 822.961 17.448 825.713 17.448C828.465 17.448 830.705 18.216 832.433 19.752C834.161 21.224 835.025 23.144 835.025 25.512C835.025 28.008 834.161 30.088 832.433 31.752C830.769 33.352 828.529 34.152 825.713 34.152ZM847.1 93V21.768H862.076V93H847.1ZM901.607 93.768C895.719 93.768 890.535 92.616 886.055 90.312C881.639 88.008 878.215 84.872 875.783 80.904C873.351 76.872 872.135 72.296 872.135 67.176C872.135 61.992 873.319 57.416 875.687 53.448C878.119 49.416 881.415 46.28 885.575 44.04C889.735 41.736 894.439 40.584 899.687 40.584C904.743 40.584 909.287 41.672 913.319 43.848C917.415 45.96 920.647 49.032 923.015 53.064C925.383 57.032 926.567 61.8 926.567 67.368C926.567 67.944 926.535 68.616 926.471 69.384C926.407 70.088 926.343 70.76 926.279 71.4H884.327V62.664H918.406L912.647 65.256C912.647 62.568 912.103 60.232 911.015 58.248C909.927 56.264 908.423 54.728 906.503 53.64C904.583 52.488 902.343 51.912 899.783 51.912C897.223 51.912 894.951 52.488 892.967 53.64C891.047 54.728 889.543 56.296 888.455 58.344C887.367 60.328 886.823 62.696 886.823 65.448V67.752C886.823 70.568 887.431 73.064 888.647 75.24C889.927 77.352 891.687 78.984 893.927 80.136C896.231 81.224 898.919 81.768 901.991 81.768C904.743 81.768 907.143 81.352 909.191 80.52C911.303 79.688 913.223 78.44 914.951 76.776L922.919 85.416C920.551 88.104 917.575 90.184 913.991 91.656C910.407 93.064 906.279 93.768 901.607 93.768ZM936.537 93V41.352H950.841V55.944L948.825 51.72C950.361 48.072 952.825 45.32 956.217 43.464C959.609 41.544 963.737 40.584 968.601 40.584V54.408C967.961 54.344 967.385 54.312 966.873 54.312C966.361 54.248 965.817 54.216 965.241 54.216C961.145 54.216 957.817 55.4 955.257 57.768C952.761 60.072 951.513 63.688 951.513 68.616V93H936.537ZM1008.13 93.768C1003.78 93.768 999.968 92.808 996.704 90.888C993.44 88.968 990.88 86.056 989.024 82.152C987.232 78.184 986.336 73.192 986.336 67.176C986.336 61.096 987.2 56.104 988.928 52.2C990.656 48.296 993.152 45.384 996.416 43.464C999.68 41.544 1003.58 40.584 1008.13 40.584C1012.99 40.584 1017.34 41.704 1021.18 43.944C1025.09 46.12 1028.16 49.192 1030.4 53.16C1032.7 57.128 1033.86 61.8 1033.86 67.176C1033.86 72.616 1032.7 77.32 1030.4 81.288C1028.16 85.256 1025.09 88.328 1021.18 90.504C1017.34 92.68 1012.99 93.768 1008.13 93.768ZM977.6 111.624V41.352H991.904V51.912L991.616 67.272L992.576 82.536V111.624H977.6ZM1005.54 81.48C1008.03 81.48 1010.24 80.904 1012.16 79.752C1014.14 78.6 1015.71 76.968 1016.86 74.856C1018.08 72.68 1018.69 70.12 1018.69 67.176C1018.69 64.168 1018.08 61.608 1016.86 59.496C1015.71 57.384 1014.14 55.752 1012.16 54.6C1010.24 53.448 1008.03 52.872 1005.54 52.872C1003.04 52.872 1000.8 53.448 998.816 54.6C996.832 55.752 995.264 57.384 994.112 59.496C992.96 61.608 992.384 64.168 992.384 67.176C992.384 70.12 992.96 72.68 994.112 74.856C995.264 76.968 996.832 78.6 998.816 79.752C1000.8 80.904 1003.04 81.48 1005.54 81.48ZM1043.88 93V21.768H1058.86V93H1043.88ZM1104.44 93V82.92L1103.48 80.712V62.664C1103.48 59.464 1102.48 56.968 1100.5 55.176C1098.58 53.384 1095.6 52.488 1091.57 52.488C1088.82 52.488 1086.1 52.936 1083.41 53.832C1080.79 54.664 1078.55 55.816 1076.69 57.288L1071.32 46.824C1074.13 44.84 1077.52 43.304 1081.49 42.216C1085.46 41.128 1089.49 40.584 1093.59 40.584C1101.46 40.584 1107.57 42.44 1111.92 46.152C1116.28 49.864 1118.45 55.656 1118.45 63.528V93H1104.44ZM1088.69 93.768C1084.66 93.768 1081.2 93.096 1078.32 91.752C1075.44 90.344 1073.24 88.456 1071.7 86.088C1070.16 83.72 1069.4 81.064 1069.4 78.12C1069.4 75.048 1070.13 72.36 1071.6 70.056C1073.14 67.752 1075.54 65.96 1078.8 64.68C1082.07 63.336 1086.32 62.664 1091.57 62.664H1105.3V71.4H1093.2C1089.68 71.4 1087.25 71.976 1085.91 73.128C1084.63 74.28 1083.99 75.72 1083.99 77.448C1083.99 79.368 1084.72 80.904 1086.2 82.056C1087.73 83.144 1089.81 83.688 1092.44 83.688C1094.93 83.688 1097.17 83.112 1099.16 81.96C1101.14 80.744 1102.58 78.984 1103.48 76.68L1105.78 83.592C1104.69 86.92 1102.71 89.448 1099.83 91.176C1096.95 92.904 1093.24 93.768 1088.69 93.768ZM1153.13 93.768C1147.05 93.768 1142.31 92.232 1138.92 89.16C1135.53 86.024 1133.83 81.384 1133.83 75.24V29.928H1148.81V75.048C1148.81 77.224 1149.38 78.92 1150.53 80.136C1151.69 81.288 1153.25 81.864 1155.24 81.864C1157.61 81.864 1159.62 81.224 1161.29 79.944L1165.32 90.504C1163.78 91.592 1161.93 92.424 1159.75 93C1157.64 93.512 1155.43 93.768 1153.13 93.768ZM1125.86 54.024V42.504H1161.67V54.024H1125.86ZM1197.76 93.768C1191.87 93.768 1186.69 92.616 1182.21 90.312C1177.79 88.008 1174.37 84.872 1171.94 80.904C1169.51 76.872 1168.29 72.296 1168.29 67.176C1168.29 61.992 1169.47 57.416 1171.84 53.448C1174.27 49.416 1177.57 46.28 1181.73 44.04C1185.89 41.736 1190.59 40.584 1195.84 40.584C1200.9 40.584 1205.44 41.672 1209.47 43.848C1213.57 45.96 1216.8 49.032 1219.17 53.064C1221.54 57.032 1222.72 61.8 1222.72 67.368C1222.72 67.944 1222.69 68.616 1222.63 69.384C1222.56 70.088 1222.5 70.76 1222.43 71.4H1180.48V62.664H1214.56L1208.8 65.256C1208.8 62.568 1208.26 60.232 1207.17 58.248C1206.08 56.264 1204.58 54.728 1202.66 53.64C1200.74 52.488 1198.5 51.912 1195.94 51.912C1193.38 51.912 1191.11 52.488 1189.12 53.64C1187.2 54.728 1185.7 56.296 1184.61 58.344C1183.52 60.328 1182.98 62.696 1182.98 65.448V67.752C1182.98 70.568 1183.59 73.064 1184.8 75.24C1186.08 77.352 1187.84 78.984 1190.08 80.136C1192.39 81.224 1195.07 81.768 1198.15 81.768C1200.9 81.768 1203.3 81.352 1205.35 80.52C1207.46 79.688 1209.38 78.44 1211.11 76.776L1219.07 85.416C1216.71 88.104 1213.73 90.184 1210.15 91.656C1206.56 93.064 1202.43 93.768 1197.76 93.768Z" fill="#5A0FF8"/>
<path d="M299.855 94.152C290.319 94.152 282.863 91.496 277.487 86.184C272.111 80.872 269.423 73.288 269.423 63.432V25.8H284.975V62.856C284.975 69.256 286.287 73.864 288.911 76.68C291.535 79.496 295.215 80.904 299.951 80.904C304.687 80.904 308.367 79.496 310.991 76.68C313.615 73.864 314.927 69.256 314.927 62.856V25.8H330.287V63.432C330.287 73.288 327.599 80.872 322.223 86.184C316.847 91.496 309.391 94.152 299.855 94.152ZM345.656 93V25.8H361.208V93H345.656Z" fill="#2D3848"/>
<path d="M403.287 93V41.352H417.591V55.944L415.575 51.72C417.111 48.072 419.575 45.32 422.967 43.464C426.359 41.544 430.487 40.584 435.351 40.584V54.408C434.711 54.344 434.135 54.312 433.623 54.312C433.111 54.248 432.567 54.216 431.991 54.216C427.895 54.216 424.567 55.4 422.007 57.768C419.511 60.072 418.263 63.688 418.263 68.616V93H403.287ZM469.513 93.768C463.625 93.768 458.441 92.616 453.961 90.312C449.545 88.008 446.121 84.872 443.689 80.904C441.257 76.872 440.041 72.296 440.041 67.176C440.041 61.992 441.225 57.416 443.593 53.448C446.025 49.416 449.321 46.28 453.481 44.04C457.641 41.736 462.345 40.584 467.593 40.584C472.649 40.584 477.193 41.672 481.225 43.848C485.321 45.96 488.553 49.032 490.921 53.064C493.289 57.032 494.473 61.8 494.473 67.368C494.473 67.944 494.441 68.616 494.377 69.384C494.313 70.088 494.249 70.76 494.185 71.4H452.233V62.664H486.313L480.553 65.256C480.553 62.568 480.009 60.232 478.921 58.248C477.833 56.264 476.329 54.728 474.409 53.64C472.489 52.488 470.249 51.912 467.689 51.912C465.129 51.912 462.857 52.488 460.873 53.64C458.953 54.728 457.449 56.296 456.361 58.344C455.273 60.328 454.729 62.696 454.729 65.448V67.752C454.729 70.568 455.337 73.064 456.553 75.24C457.833 77.352 459.593 78.984 461.833 80.136C464.137 81.224 466.825 81.768 469.897 81.768C472.649 81.768 475.049 81.352 477.097 80.52C479.209 79.688 481.129 78.44 482.857 76.776L490.825 85.416C488.457 88.104 485.481 90.184 481.897 91.656C478.313 93.064 474.185 93.768 469.513 93.768ZM534.717 93V82.92L533.757 80.712V62.664C533.757 59.464 532.765 56.968 530.781 55.176C528.861 53.384 525.885 52.488 521.853 52.488C519.101 52.488 516.381 52.936 513.693 53.832C511.069 54.664 508.829 55.816 506.973 57.288L501.597 46.824C504.413 44.84 507.805 43.304 511.773 42.216C515.741 41.128 519.773 40.584 523.869 40.584C531.741 40.584 537.853 42.44 542.205 46.152C546.557 49.864 548.733 55.656 548.733 63.528V93H534.717ZM518.973 93.768C514.941 93.768 511.485 93.096 508.605 91.752C505.725 90.344 503.517 88.456 501.981 86.088C500.445 83.72 499.677 81.064 499.677 78.12C499.677 75.048 500.413 72.36 501.885 70.056C503.421 67.752 505.821 65.96 509.085 64.68C512.349 63.336 516.605 62.664 521.853 62.664H535.581V71.4H523.485C519.965 71.4 517.533 71.976 516.189 73.128C514.909 74.28 514.269 75.72 514.269 77.448C514.269 79.368 515.005 80.904 516.477 82.056C518.013 83.144 520.093 83.688 522.717 83.688C525.213 83.688 527.453 83.112 529.437 81.96C531.421 80.744 532.861 78.984 533.757 76.68L536.061 83.592C534.973 86.92 532.989 89.448 530.109 91.176C527.229 92.904 523.517 93.768 518.973 93.768ZM587.622 93.768C582.054 93.768 577.094 92.648 572.742 90.408C568.39 88.104 564.966 84.936 562.47 80.904C560.038 76.872 558.822 72.296 558.822 67.176C558.822 61.992 560.038 57.416 562.47 53.448C564.966 49.416 568.39 46.28 572.742 44.04C577.094 41.736 582.054 40.584 587.622 40.584C593.062 40.584 597.798 41.736 601.83 44.04C605.862 46.28 608.838 49.512 610.758 53.736L599.142 59.976C597.798 57.544 596.102 55.752 594.054 54.6C592.07 53.448 589.894 52.872 587.526 52.872C584.966 52.872 582.662 53.448 580.614 54.6C578.566 55.752 576.934 57.384 575.718 59.496C574.566 61.608 573.99 64.168 573.99 67.176C573.99 70.184 574.566 72.744 575.718 74.856C576.934 76.968 578.566 78.6 580.614 79.752C582.662 80.904 584.966 81.48 587.526 81.48C589.894 81.48 592.07 80.936 594.054 79.848C596.102 78.696 597.798 76.872 599.142 74.376L610.758 80.712C608.838 84.872 605.862 88.104 601.83 90.408C597.798 92.648 593.062 93.768 587.622 93.768ZM641.251 93.768C635.171 93.768 630.435 92.232 627.043 89.16C623.651 86.024 621.955 81.384 621.955 75.24V29.928H636.931V75.048C636.931 77.224 637.507 78.92 638.659 80.136C639.811 81.288 641.379 81.864 643.363 81.864C645.731 81.864 647.747 81.224 649.411 79.944L653.443 90.504C651.907 91.592 650.051 92.424 647.875 93C645.763 93.512 643.555 93.768 641.251 93.768ZM613.987 54.024V42.504H649.795V54.024H613.987Z" fill="#61DAFB"/>
</svg>
